<svg xmlns:svg="http://www.w3.org/2000/svg" xmlns="http://www.w3.org/2000/svg" version="1.0" width="302" height="152" xml:space="preserve"><defs><clipPath><path d="M 0 0 L 276 0 L 276 120 L 0 120 L 0 0 z"/></clipPath><clipPath><path d="M 0 0 L 276 0 L 276 120 L 0 120 L 0 0 z"/></clipPath><clipPath><path d="M 0 0 L 276 0 L 276 120 L 0 120 L 0 0 z"/></clipPath><clipPath><path d="M 0 0 L 276 0 L 276 120 L 0 120 L 0 0 z"/></clipPath><clipPath><path d="M 0 0 L 276 0 L 276 120 L 0 120 L 0 0 z"/></clipPath><clipPath><path d="M 0 0 L 276 0 L 276 120 L 0 120 L 0 0 z"/></clipPath><clipPath><path d="M 0 0 L 276 0 L 276 120 L 0 120 L 0 0 z"/></clipPath></defs><g transform="matrix(1.25,0,0,-1.25,-41.641803,131.21108)"><g transform="matrix(0.8000021,0,0,0.8000021,143.24121,66.653283)"><path d="M 0 0 L 0 -1.8 L -5.2 -1.8 L -5.2 -5.3 L -0.8 -5.3 L -0.8 -7 L -5.2 -7 L -5.2 -11.9 L -7.4 -11.9 L -7.4 0 L 0 0 z" style="fill:#ffffff;fill-opacity:1;fill-rule:nonzero;stroke:none"/></g><g transform="matrix(0.8000021,0,0,0.8000021,43.296946,-3.356823)"><g clip-path="url(#clipPath2515)"><g><path d="M138.4 81.6 C138.4 80.7 138.3 79.9 138 79.2 C137.7 78.4 137.3 77.8 136.8 77.3 C136.3 76.7 135.6 76.3 134.9 76 C134.2 75.7 133.4 75.5 132.5 75.5 C131.6 75.5 130.8 75.7 130.1 76 C129.3 76.3 128.7 76.7 128.2 77.3 C127.7 77.8 127.3 78.4 127 79.2 C126.7 79.9 126.6 80.7 126.6 81.6 C126.6 82.5 126.7 83.3 127 84 C127.3 84.8 127.7 85.4 128.2 85.9 C128.7 86.5 129.3 86.9 130.1 87.2 C130.8 87.5 131.6 87.7 132.5 87.7 C133.1 87.7 133.6 87.6 134.2 87.5 C134.7 87.3 135.2 87.1 135.6 86.9 C136 86.6 136.4 86.3 136.8 85.9 C137.1 85.6 137.4 85.2 137.7 84.7 C137.9 84.3 138.1 83.8 138.2 83.3 C138.3 82.7 138.4 82.2 138.4 81.6 M136.2 81.6 C136.2 82.3 136.1 82.8 135.9 83.4 C135.7 83.9 135.5 84.3 135.2 84.7 C134.9 85 134.5 85.3 134 85.5 C133.6 85.7 133.1 85.8 132.5 85.8 C131.9 85.8 131.4 85.7 130.9 85.5 C130.5 85.3 130.1 85 129.8 84.7 C129.5 84.3 129.2 83.9 129 83.4 C128.9 82.8 128.8 82.3 128.8 81.6 C128.8 80.9 128.9 80.4 129 79.8 C129.2 79.3 129.5 78.9 129.8 78.5 C130.1 78.2 130.5 77.9 130.9 77.7 C131.4 77.5 131.9 77.4 132.5 77.4 C133.1 77.4 133.6 77.5 134 77.7 C134.5 77.9 134.9 78.2 135.2 78.5 C135.5 78.9 135.7 79.3 135.9 79.8 C136.1 80.4 136.2 80.9 136.2 81.6 " style="fill:#ffffff;fill-opacity:1;fill-rule:nonzero;stroke:none"/></g><g><path d="M143.1 80.3 L143.1 75.7 L140.9 75.7 L140.9 87.5 L144.5 87.5 C145.3 87.5 146 87.4 146.5 87.3 C147.1 87.1 147.6 86.9 147.9 86.6 C148.3 86.3 148.6 85.9 148.7 85.5 C148.9 85.1 149 84.6 149 84.1 C149 83.7 148.9 83.3 148.8 83 C148.7 82.6 148.5 82.3 148.3 82 C148.1 81.7 147.8 81.5 147.5 81.3 C147.2 81 146.8 80.9 146.4 80.7 C146.7 80.6 146.9 80.3 147.1 80 L150.1 75.7 L148.1 75.7 C147.7 75.7 147.4 75.8 147.3 76.1 L144.8 79.9 C144.7 80 144.6 80.1 144.5 80.2 C144.4 80.3 144.2 80.3 144 80.3 L143.1 80.3 zM143.1 81.9 L144.5 81.9 C144.9 81.9 145.2 81.9 145.5 82 C145.8 82.1 146.1 82.3 146.3 82.5 C146.5 82.7 146.6 82.9 146.7 83.1 C146.8 83.4 146.9 83.6 146.9 83.9 C146.9 84.6 146.7 85 146.3 85.3 C145.9 85.7 145.3 85.8 144.5 85.8 L143.1 85.8 L143.1 81.9 z" style="fill:#ffffff;fill-opacity:1;fill-rule:nonzero;stroke:none"/></g><g><path d="M156.6 77.4 C157 77.4 157.4 77.5 157.7 77.6 C158.1 77.8 158.3 78 158.6 78.2 C158.8 78.5 159 78.8 159.1 79.1 C159.2 79.5 159.3 79.9 159.3 80.4 L159.3 87.5 L161.4 87.5 L161.4 80.4 C161.4 79.7 161.3 79 161.1 78.4 C160.9 77.8 160.6 77.3 160.1 76.9 C159.7 76.4 159.2 76.1 158.6 75.9 C158 75.6 157.4 75.5 156.6 75.5 C155.8 75.5 155.2 75.6 154.6 75.9 C154 76.1 153.5 76.4 153 76.9 C152.6 77.3 152.3 77.8 152.1 78.4 C151.9 79 151.7 79.7 151.7 80.4 L151.7 87.5 L153.9 87.5 L153.9 80.4 C153.9 79.9 154 79.5 154.1 79.2 C154.2 78.8 154.4 78.5 154.6 78.2 C154.9 78 155.1 77.8 155.5 77.6 C155.8 77.5 156.2 77.4 156.6 77.4 " style="fill:#ffffff;fill-opacity:1;fill-rule:nonzero;stroke:none"/></g><g><path d="M170.7 80 C170.8 79.8 170.9 79.6 170.9 79.4 C171 79.6 171.1 79.8 171.2 80 C171.2 80.2 171.3 80.4 171.4 80.6 L174.9 87.1 C174.9 87.2 175 87.3 175 87.3 C175.1 87.4 175.1 87.4 175.2 87.4 C175.2 87.5 175.3 87.5 175.4 87.5 C175.4 87.5 175.5 87.5 175.6 87.5 L177.3 87.5 L177.3 75.6 L175.3 75.6 L175.3 83.3 C175.3 83.4 175.3 83.6 175.3 83.8 C175.4 83.9 175.4 84.1 175.4 84.3 L171.9 77.5 C171.7 77.2 171.4 77.1 171.1 77.1 L170.8 77.1 C170.4 77.1 170.2 77.2 170 77.5 L166.4 84.3 C166.5 84.1 166.5 83.9 166.5 83.8 C166.5 83.6 166.5 83.4 166.5 83.3 L166.5 75.6 L164.6 75.6 L164.6 87.5 L166.2 87.5 C166.3 87.5 166.4 87.5 166.5 87.5 C166.5 87.5 166.6 87.5 166.7 87.4 C166.7 87.4 166.8 87.4 166.8 87.3 C166.9 87.3 166.9 87.2 166.9 87.1 L170.4 80.5 C170.5 80.4 170.6 80.2 170.7 80 " style="fill:#ffffff;fill-opacity:1;fill-rule:nonzero;stroke:none"/></g><g><path d="M119.7 60.1 L119.7 55.9 L117.5 55.9 L117.5 67.8 L121.3 67.8 C122.1 67.8 122.8 67.7 123.4 67.5 C123.9 67.3 124.4 67.1 124.8 66.7 C125.1 66.4 125.4 66 125.6 65.5 C125.8 65.1 125.9 64.6 125.9 64 C125.9 63.4 125.8 62.9 125.6 62.4 C125.4 61.9 125.1 61.5 124.7 61.2 C124.4 60.8 123.9 60.6 123.3 60.4 C122.7 60.2 122.1 60.1 121.3 60.1 L119.7 60.1 zM119.7 61.8 L121.3 61.8 C121.7 61.8 122.1 61.9 122.4 62 C122.7 62.1 122.9 62.2 123.1 62.4 C123.3 62.6 123.5 62.8 123.5 63.1 C123.6 63.4 123.7 63.7 123.7 64 C123.7 64.3 123.6 64.6 123.5 64.9 C123.5 65.1 123.3 65.3 123.1 65.5 C122.9 65.7 122.7 65.8 122.4 65.9 C122.1 66 121.7 66.1 121.3 66.1 L119.7 66.1 L119.7 61.8 z" style="fill:#ffffff;fill-opacity:1;fill-rule:nonzero;stroke:none"/></g><g><path d="M137.4 56 L135.7 56 C135.5 56 135.4 56 135.3 56.1 C135.1 56.2 135 56.4 135 56.5 L134.1 58.9 L129.3 58.9 L128.4 56.5 C128.4 56.4 128.3 56.3 128.2 56.2 C128 56.1 127.9 56 127.7 56 L126 56 L130.6 67.9 L132.8 67.9 L137.4 56 zM129.8 60.5 L133.6 60.5 L132.1 64.4 C132.1 64.6 132 64.8 131.9 65 C131.8 65.3 131.8 65.5 131.7 65.8 C131.6 65.5 131.5 65.3 131.5 65 C131.4 64.8 131.3 64.6 131.3 64.4 L129.8 60.5 z" style="fill:#ffffff;fill-opacity:1;fill-rule:nonzero;stroke:none"/></g></g></g><g transform="matrix(0.8000021,0,0,0.8000021,160.3359,50.905641)"><path d="M 0 0 L 0 -1.8 L -3.5 -1.8 L -3.5 -11.9 L -5.7 -11.9 L -5.7 -1.8 L -9.2 -1.8 L -9.2 0 L 0 0 z" style="fill:#ffffff;fill-opacity:1;fill-rule:nonzero;stroke:none"/></g><g transform="matrix(0.8000021,0,0,0.8000021,43.296946,-3.356823)"><g clip-path="url(#clipPath2551)"><g><path d="M150.7 60.6 L150.7 56 L148.5 56 L148.5 67.8 L152.1 67.8 C152.9 67.8 153.6 67.7 154.1 67.6 C154.7 67.4 155.2 67.2 155.5 66.9 C155.9 66.6 156.2 66.2 156.3 65.8 C156.5 65.4 156.6 64.9 156.6 64.4 C156.6 64 156.5 63.6 156.4 63.3 C156.3 62.9 156.1 62.6 155.9 62.3 C155.7 62 155.4 61.8 155.1 61.6 C154.8 61.3 154.4 61.2 154 61 C154.3 60.9 154.5 60.6 154.7 60.3 L157.7 56 L155.7 56 C155.3 56 155 56.1 154.9 56.4 L152.4 60.2 C152.3 60.3 152.2 60.4 152.1 60.5 C152 60.6 151.8 60.6 151.6 60.6 L150.7 60.6 zM150.7 62.2 L152.1 62.2 C152.5 62.2 152.8 62.2 153.1 62.3 C153.4 62.4 153.7 62.6 153.9 62.8 C154.1 63 154.2 63.2 154.3 63.4 C154.4 63.7 154.5 63.9 154.5 64.2 C154.5 64.9 154.3 65.3 153.9 65.6 C153.5 66 152.9 66.1 152.1 66.1 L150.7 66.1 L150.7 62.2 z" style="fill:#ffffff;fill-opacity:1;fill-rule:nonzero;stroke:none"/></g></g></g><path d="M 172.7 41.4 L 170.9 41.4 L 170.9 50.9 L 172.7 50.9 L 172.7 41.4 z" style="fill:#ffffff;fill-opacity:1;fill-rule:nonzero;stroke:none"/><g transform="matrix(0.8000021,0,0,0.8000021,43.296946,-3.356823)"><g clip-path="url(#clipPath2565)"><g><path d="M176.1 61.9 C176.1 61 176 60.2 175.7 59.5 C175.4 58.7 175 58.1 174.5 57.6 C174 57 173.3 56.6 172.6 56.3 C171.9 56 171.1 55.8 170.2 55.8 C169.3 55.8 168.5 56 167.8 56.3 C167 56.6 166.4 57 165.9 57.6 C165.4 58.1 165 58.7 164.7 59.5 C164.4 60.2 164.3 61 164.3 61.9 C164.3 62.8 164.4 63.6 164.7 64.3 C165 65.1 165.4 65.7 165.9 66.2 C166.4 66.8 167 67.2 167.8 67.5 C168.5 67.8 169.3 68 170.2 68 C170.8 68 171.3 67.9 171.9 67.8 C172.4 67.6 172.9 67.4 173.3 67.2 C173.7 66.9 174.1 66.6 174.5 66.2 C174.8 65.9 175.1 65.5 175.4 65 C175.6 64.6 175.8 64.1 175.9 63.6 C176 63 176.1 62.5 176.1 61.9 M173.9 61.9 C173.9 62.6 173.8 63.1 173.6 63.7 C173.4 64.2 173.2 64.6 172.9 65 C172.6 65.3 172.2 65.6 171.7 65.8 C171.3 66 170.8 66.1 170.2 66.1 C169.6 66.1 169.1 66 168.6 65.8 C168.2 65.6 167.8 65.3 167.5 65 C167.2 64.6 166.9 64.2 166.7 63.7 C166.6 63.1 166.5 62.6 166.5 61.9 C166.5 61.2 166.6 60.7 166.7 60.1 C166.9 59.6 167.2 59.2 167.5 58.8 C167.8 58.5 168.2 58.2 168.6 58 C169.1 57.8 169.6 57.7 170.2 57.7 C170.8 57.7 171.3 57.8 171.7 58 C172.2 58.2 172.6 58.5 172.9 58.8 C173.2 59.2 173.4 59.6 173.6 60.1 C173.8 60.7 173.9 61.2 173.9 61.9 " style="fill:#ffffff;fill-opacity:1;fill-rule:nonzero;stroke:none"/></g></g></g><g transform="matrix(0.8000021,0,0,0.8000021,192.45334,50.905641)"><path d="M 0 0 L 0 -1.8 L -3.5 -1.8 L -3.5 -11.9 L -5.7 -11.9 L -5.7 -1.8 L -9.2 -1.8 L -9.2 0 L 0 0 z" style="fill:#ffffff;fill-opacity:1;fill-rule:nonzero;stroke:none"/></g><g transform="matrix(0.8000021,0,0,0.8000021,43.296946,-3.356823)"><g clip-path="url(#clipPath2581)"><g><path d="M193.7 60.6 L193.7 56 L191.5 56 L191.5 60.6 L187.3 67.9 L189.2 67.9 C189.4 67.9 189.5 67.8 189.6 67.7 C189.7 67.6 189.8 67.5 189.9 67.4 L192 63.4 C192.2 63.2 192.3 62.9 192.4 62.7 C192.5 62.5 192.6 62.3 192.6 62.1 C192.7 62.3 192.8 62.5 192.9 62.7 C193 63 193.1 63.2 193.2 63.4 L195.3 67.4 C195.4 67.5 195.5 67.6 195.6 67.7 C195.7 67.8 195.9 67.9 196 67.9 L198 67.9 L193.7 60.6 z" style="fill:#ffffff;fill-opacity:1;fill-rule:nonzero;stroke:none"/></g><g><path d="M207.8 67.8 L207.8 67 C207.8 66.7 207.7 66.5 207.6 66.3 L201.6 57.7 L207.7 57.7 L207.7 55.9 L198.8 55.9 L198.8 56.8 C198.8 56.9 198.8 57 198.8 57.1 C198.9 57.2 198.9 57.3 199 57.4 L205 66 L199.1 66 L199.1 67.8 L207.8 67.8 z" style="fill:#ffffff;fill-opacity:1;fill-rule:nonzero;stroke:none"/></g><g><path d="M216.3 60.3 C216.4 60.1 216.5 59.9 216.5 59.7 C216.6 59.9 216.7 60.1 216.8 60.3 C216.8 60.5 216.9 60.7 217 60.9 L220.5 67.4 C220.5 67.5 220.6 67.6 220.6 67.6 C220.7 67.7 220.7 67.7 220.8 67.7 C220.8 67.8 220.9 67.8 221 67.8 C221 67.8 221.1 67.8 221.2 67.8 L222.9 67.8 L222.9 55.9 L220.9 55.9 L220.9 63.6 C220.9 63.7 220.9 63.9 220.9 64.1 C221 64.2 221 64.4 221 64.6 L217.5 57.8 C217.3 57.5 217 57.4 216.7 57.4 L216.4 57.4 C216 57.4 215.8 57.5 215.6 57.8 L212 64.6 C212.1 64.4 212.1 64.2 212.1 64.1 C212.1 63.9 212.1 63.7 212.1 63.6 L212.1 55.9 L210.2 55.9 L210.2 67.8 L211.8 67.8 C211.9 67.8 212 67.8 212.1 67.8 C212.1 67.8 212.2 67.8 212.3 67.7 C212.3 67.7 212.4 67.7 212.4 67.6 C212.5 67.6 212.5 67.5 212.5 67.4 L216 60.8 C216.1 60.7 216.2 60.5 216.3 60.3 " style="fill:#ffffff;fill-opacity:1;fill-rule:nonzero;stroke:none"/></g><g><path d="M230.8 57.7 C231.2 57.7 231.6 57.8 231.9 57.9 C232.3 58.1 232.5 58.3 232.8 58.5 C233 58.8 233.2 59.1 233.3 59.4 C233.4 59.8 233.5 60.2 233.5 60.7 L233.5 67.8 L235.6 67.8 L235.6 60.7 C235.6 60 235.5 59.3 235.3 58.7 C235.1 58.1 234.8 57.6 234.3 57.2 C233.9 56.7 233.4 56.4 232.8 56.2 C232.2 55.9 231.5 55.8 230.8 55.8 C230 55.8 229.4 55.9 228.8 56.2 C228.2 56.4 227.7 56.7 227.2 57.2 C226.8 57.6 226.5 58.1 226.3 58.7 C226.1 59.3 226 60 226 60.7 L226 67.8 L228.1 67.8 L228.1 60.7 C228.1 60.2 228.2 59.8 228.3 59.5 C228.4 59.1 228.6 58.8 228.8 58.5 C229.1 58.3 229.3 58.1 229.7 57.9 C230 57.8 230.4 57.7 230.8 57.7 " style="fill:#ffffff;fill-opacity:1;fill-rule:nonzero;stroke:none"/></g></g></g><g transform="matrix(0.8000021,0,0,0.8000021,143.24121,35.159199)"><path d="M 0 0 L 0 -1.8 L -5.2 -1.8 L -5.2 -5 L -1.1 -5 L -1.1 -6.7 L -5.2 -6.7 L -5.2 -10.1 L 0 -10.1 L 0 -11.9 L -7.4 -11.9 L -7.4 0 L 0 0 z" style="fill:#ffffff;fill-opacity:1;fill-rule:nonzero;stroke:none"/></g><g transform="matrix(0.8000021,0,0,0.8000021,43.296946,-3.356823)"><g clip-path="url(#clipPath2609)"><g><path d="M129.7 43.2 L130.2 43.2 C130.4 43.2 130.6 43.2 130.7 43.3 C130.9 43.3 131 43.4 131.1 43.6 L134.3 47.7 C134.4 47.9 134.6 48 134.7 48.1 C134.9 48.1 135.1 48.2 135.3 48.2 L137.2 48.2 L133.2 43.2 C133 42.9 132.7 42.7 132.5 42.6 C132.7 42.5 132.8 42.4 133 42.3 C133.1 42.2 133.3 42.1 133.4 41.9 L137.4 36.3 L135.5 36.3 C135.3 36.3 135.1 36.3 134.9 36.4 C134.8 36.5 134.7 36.6 134.6 36.7 L131.3 41.1 C131.2 41.3 131.1 41.4 131 41.4 C130.8 41.5 130.6 41.5 130.4 41.5 L129.7 41.5 L129.7 36.3 L127.5 36.3 L127.5 48.2 L129.7 48.2 L129.7 43.2 z" style="fill:#ffffff;fill-opacity:1;fill-rule:nonzero;stroke:none"/></g><g><path d="M149.8 42.2 C149.8 41.3 149.7 40.5 149.4 39.8 C149.1 39 148.7 38.4 148.2 37.9 C147.7 37.3 147 36.9 146.3 36.6 C145.6 36.3 144.8 36.1 143.9 36.1 C143 36.1 142.2 36.3 141.5 36.6 C140.7 36.9 140.1 37.3 139.6 37.9 C139.1 38.4 138.7 39 138.4 39.8 C138.1 40.5 138 41.3 138 42.2 C138 43.1 138.1 43.9 138.4 44.6 C138.7 45.4 139.1 46 139.6 46.5 C140.1 47.1 140.7 47.5 141.5 47.8 C142.2 48.1 143 48.3 143.9 48.3 C144.5 48.3 145 48.2 145.6 48.1 C146.1 47.9 146.6 47.7 147 47.5 C147.4 47.2 147.8 46.9 148.2 46.5 C148.5 46.2 148.8 45.8 149.1 45.3 C149.3 44.9 149.5 44.4 149.6 43.9 C149.7 43.3 149.8 42.8 149.8 42.2 M147.6 42.2 C147.6 42.9 147.5 43.4 147.3 44 C147.1 44.5 146.9 44.9 146.6 45.3 C146.3 45.6 145.9 45.9 145.4 46.1 C145 46.3 144.5 46.4 143.9 46.4 C143.3 46.4 142.8 46.3 142.3 46.1 C141.9 45.9 141.5 45.6 141.2 45.3 C140.9 44.9 140.6 44.5 140.4 44 C140.3 43.4 140.2 42.9 140.2 42.2 C140.2 41.5 140.3 41 140.4 40.4 C140.6 39.9 140.9 39.5 141.2 39.1 C141.5 38.8 141.9 38.5 142.3 38.3 C142.8 38.1 143.3 38 143.9 38 C144.5 38 145 38.1 145.4 38.3 C145.9 38.5 146.3 38.8 146.6 39.1 C146.9 39.5 147.1 39.9 147.3 40.4 C147.5 41 147.6 41.5 147.6 42.2 " style="fill:#ffffff;fill-opacity:1;fill-rule:nonzero;stroke:none"/></g><g><path d="M153.7 48.1 C153.8 48.1 153.8 48.1 153.9 48.1 C153.9 48 154 48 154 47.9 C154.1 47.9 154.1 47.8 154.2 47.8 L160.3 39.8 C160.3 40 160.3 40.2 160.3 40.4 C160.3 40.6 160.3 40.7 160.3 40.9 L160.3 48.1 L162.2 48.1 L162.2 36.3 L161.1 36.3 C160.9 36.3 160.7 36.3 160.6 36.3 C160.5 36.4 160.4 36.5 160.3 36.6 L154.2 44.5 C154.2 44.4 154.2 44.2 154.2 44 C154.2 43.8 154.2 43.7 154.2 43.5 L154.2 36.3 L152.3 36.3 L152.3 48.1 L153.5 48.1 C153.6 48.1 153.6 48.1 153.7 48.1 " style="fill:#ffffff;fill-opacity:1;fill-rule:nonzero;stroke:none"/></g><g><path d="M176.6 42.2 C176.6 41.3 176.5 40.5 176.2 39.8 C175.9 39 175.5 38.4 175 37.9 C174.5 37.3 173.8 36.9 173.1 36.6 C172.4 36.3 171.6 36.1 170.7 36.1 C169.8 36.1 169 36.3 168.3 36.6 C167.5 36.9 166.9 37.3 166.4 37.9 C165.9 38.4 165.5 39 165.2 39.8 C164.9 40.5 164.8 41.3 164.8 42.2 C164.8 43.1 164.9 43.9 165.2 44.6 C165.5 45.4 165.9 46 166.4 46.5 C166.9 47.1 167.5 47.5 168.3 47.8 C169 48.1 169.8 48.3 170.7 48.3 C171.3 48.3 171.8 48.2 172.4 48.1 C172.9 47.9 173.4 47.7 173.8 47.5 C174.2 47.2 174.6 46.9 175 46.5 C175.3 46.2 175.6 45.8 175.9 45.3 C176.1 44.9 176.3 44.4 176.4 43.9 C176.5 43.3 176.6 42.8 176.6 42.2 M174.4 42.2 C174.4 42.9 174.3 43.4 174.1 44 C173.9 44.5 173.7 44.9 173.4 45.3 C173.1 45.6 172.7 45.9 172.2 46.1 C171.8 46.3 171.3 46.4 170.7 46.4 C170.1 46.4 169.6 46.3 169.1 46.1 C168.7 45.9 168.3 45.6 168 45.3 C167.7 44.9 167.4 44.5 167.2 44 C167.1 43.4 167 42.9 167 42.2 C167 41.5 167.1 41 167.2 40.4 C167.4 39.9 167.7 39.5 168 39.1 C168.3 38.8 168.7 38.5 169.1 38.3 C169.6 38.1 170.1 38 170.7 38 C171.3 38 171.8 38.1 172.2 38.3 C172.7 38.5 173.1 38.8 173.4 39.1 C173.7 39.5 173.9 39.9 174.1 40.4 C174.3 41 174.4 41.5 174.4 42.2 " style="fill:#ffffff;fill-opacity:1;fill-rule:nonzero;stroke:none"/></g><g><path d="M185.3 40.7 C185.4 40.5 185.5 40.3 185.5 40.1 C185.6 40.3 185.7 40.5 185.8 40.7 C185.8 40.9 185.9 41.1 186 41.3 L189.5 47.8 C189.5 47.9 189.6 48 189.6 48 C189.7 48.1 189.7 48.1 189.8 48.1 C189.8 48.2 189.9 48.2 190 48.2 C190 48.2 190.1 48.2 190.2 48.2 L191.9 48.2 L191.9 36.3 L189.9 36.3 L189.9 44 C189.9 44.1 189.9 44.3 189.9 44.5 C190 44.6 190 44.8 190 45 L186.5 38.2 C186.3 37.9 186 37.8 185.7 37.8 L185.4 37.8 C185 37.8 184.8 37.9 184.6 38.2 L181 45 C181.1 44.8 181.1 44.6 181.1 44.5 C181.1 44.3 181.1 44.1 181.1 44 L181.1 36.3 L179.2 36.3 L179.2 48.2 L180.8 48.2 C180.9 48.2 181 48.2 181.1 48.2 C181.1 48.2 181.2 48.2 181.3 48.1 C181.3 48.1 181.4 48.1 181.4 48 C181.5 48 181.5 47.9 181.5 47.8 L185 41.2 C185.1 41.1 185.2 40.9 185.3 40.7 " style="fill:#ffffff;fill-opacity:1;fill-rule:nonzero;stroke:none"/></g></g></g><path d="M 201.1 25.7 L 199.4 25.7 L 199.4 35.2 L 201.1 35.2 L 201.1 25.7 z" style="fill:#ffffff;fill-opacity:1;fill-rule:nonzero;stroke:none"/><g transform="matrix(0.8000021,0,0,0.8000021,43.296946,-3.356823)"><g clip-path="url(#clipPath2639)"><g><path d="M208.6 39.1 C208.7 39.1 208.8 39.1 208.9 39 L209.8 38 C209.3 37.4 208.7 37 208 36.6 C207.3 36.3 206.5 36.2 205.5 36.2 C204.7 36.2 203.9 36.3 203.2 36.6 C202.5 36.9 201.9 37.3 201.4 37.9 C200.9 38.4 200.5 39.1 200.3 39.8 C200 40.5 199.9 41.4 199.9 42.2 C199.9 43.1 200 43.9 200.3 44.7 C200.6 45.4 201 46.1 201.5 46.6 C202 47.1 202.6 47.5 203.3 47.8 C204 48.1 204.8 48.3 205.7 48.3 C206.5 48.3 207.3 48.2 207.9 47.9 C208.6 47.6 209.2 47.2 209.6 46.8 L208.9 45.7 C208.8 45.7 208.8 45.6 208.7 45.6 C208.7 45.5 208.6 45.5 208.4 45.5 C208.4 45.5 208.3 45.5 208.2 45.6 C208.1 45.6 208 45.7 207.9 45.7 C207.8 45.8 207.7 45.9 207.6 45.9 C207.4 46 207.3 46.1 207.1 46.2 C206.9 46.2 206.7 46.3 206.5 46.3 C206.2 46.4 206 46.4 205.7 46.4 C205.1 46.4 204.7 46.3 204.2 46.1 C203.8 45.9 203.4 45.7 203.1 45.3 C202.8 45 202.5 44.5 202.4 44 C202.2 43.5 202.1 42.9 202.1 42.2 C202.1 41.6 202.2 41 202.4 40.5 C202.6 39.9 202.8 39.5 203.2 39.1 C203.5 38.8 203.8 38.5 204.3 38.3 C204.7 38.1 205.2 38 205.7 38 C206 38 206.2 38.1 206.5 38.1 C206.7 38.1 206.9 38.2 207.1 38.2 C207.3 38.3 207.5 38.4 207.7 38.5 C207.9 38.6 208.1 38.8 208.2 38.9 C208.3 39 208.4 39 208.4 39.1 C208.5 39.1 208.5 39.1 208.6 39.1 " style="fill:#ffffff;fill-opacity:1;fill-rule:nonzero;stroke:none"/></g><g><path d="M219.9 48.1 L219.9 47.3 C219.9 47 219.8 46.8 219.7 46.6 L213.7 38 L219.8 38 L219.8 36.2 L210.9 36.2 L210.9 37.1 C210.9 37.2 210.9 37.3 210.9 37.4 C211 37.5 211 37.6 211.1 37.7 L217.1 46.3 L211.2 46.3 L211.2 48.1 L219.9 48.1 z" style="fill:#ffffff;fill-opacity:1;fill-rule:nonzero;stroke:none"/></g><g><path d="M223.7 48.1 C223.8 48.1 223.8 48.1 223.9 48.1 C223.9 48 224 48 224 47.9 C224.1 47.9 224.1 47.8 224.2 47.8 L230.3 39.8 C230.3 40 230.3 40.2 230.3 40.4 C230.3 40.6 230.3 40.7 230.3 40.9 L230.3 48.1 L232.2 48.1 L232.2 36.3 L231.1 36.3 C230.9 36.3 230.7 36.3 230.6 36.3 C230.5 36.4 230.4 36.5 230.3 36.6 L224.2 44.5 C224.2 44.4 224.2 44.2 224.2 44 C224.2 43.8 224.2 43.7 224.2 43.5 L224.2 36.3 L222.3 36.3 L222.3 48.1 L223.5 48.1 C223.6 48.1 223.6 48.1 223.7 48.1 " style="fill:#ffffff;fill-opacity:1;fill-rule:nonzero;stroke:none"/></g></g></g><g transform="matrix(0.8000021,0,0,0.8000021,237.5277,35.159199)"><path d="M 0 0 L 0 -1.8 L -5.2 -1.8 L -5.2 -5 L -1.1 -5 L -1.1 -6.7 L -5.2 -6.7 L -5.2 -10.1 L 0 -10.1 L 0 -11.9 L -7.4 -11.9 L -7.4 0 L 0 0 z" style="fill:#ffffff;fill-opacity:1;fill-rule:nonzero;stroke:none"/></g><g transform="matrix(0.8000021,0,0,0.8000021,43.296946,-3.356823)"><g clip-path="url(#clipPath2663)"><g><path d="M252.8 36.5 C252.1 36.3 251.4 36.2 250.6 36.2 C249.7 36.2 248.8 36.3 248.1 36.6 C247.3 36.9 246.6 37.4 246.1 37.9 C245.5 38.4 245.1 39.1 244.8 39.8 C244.5 40.6 244.4 41.4 244.4 42.3 C244.4 43.1 244.5 44 244.8 44.7 C245.1 45.4 245.5 46.1 246 46.6 C246.5 47.2 247.2 47.6 247.9 47.9 C248.7 48.2 249.5 48.3 250.4 48.3 C250.9 48.3 251.4 48.3 251.8 48.2 C252.2 48.1 252.6 48 252.9 47.9 C253.3 47.7 253.6 47.6 253.9 47.4 C254.2 47.2 254.4 47 254.7 46.8 L254.1 45.8 C254 45.6 253.8 45.5 253.7 45.5 C253.5 45.4 253.4 45.5 253.2 45.6 C253 45.7 252.8 45.8 252.6 45.9 C252.5 46 252.3 46.1 252 46.2 C251.8 46.3 251.6 46.3 251.3 46.4 C251 46.4 250.7 46.4 250.4 46.4 C249.8 46.4 249.3 46.3 248.8 46.1 C248.3 45.9 247.9 45.7 247.6 45.3 C247.3 44.9 247 44.5 246.9 44 C246.7 43.5 246.6 42.9 246.6 42.3 C246.6 41.6 246.7 41 246.9 40.4 C247.1 39.9 247.3 39.5 247.7 39.1 C248 38.7 248.5 38.4 248.9 38.2 C249.4 38 250 37.9 250.6 37.9 C251 37.9 251.4 38 251.7 38.1 C252.1 38.2 252.4 38.3 252.7 38.5 L252.7 40.6 L251.3 40.6 C251.1 40.6 251 40.7 250.9 40.7 C250.9 40.8 250.8 40.9 250.8 41 L250.8 42.3 L254.7 42.3 L254.7 37.5 C254.1 37 253.5 36.7 252.8 36.5 " style="fill:#ffffff;fill-opacity:1;fill-rule:nonzero;stroke:none"/></g><g><path d="M268.6 42.2 C268.6 41.3 268.5 40.5 268.2 39.8 C267.9 39 267.5 38.4 267 37.9 C266.5 37.3 265.8 36.9 265.1 36.6 C264.4 36.3 263.6 36.1 262.7 36.1 C261.8 36.1 261 36.3 260.3 36.6 C259.5 36.9 258.9 37.3 258.4 37.9 C257.9 38.4 257.5 39 257.2 39.8 C256.9 40.5 256.8 41.3 256.8 42.2 C256.8 43.1 256.9 43.9 257.2 44.6 C257.5 45.4 257.9 46 258.4 46.5 C258.9 47.1 259.5 47.5 260.3 47.8 C261 48.1 261.8 48.3 262.7 48.3 C263.3 48.3 263.8 48.2 264.4 48.1 C264.9 47.9 265.4 47.7 265.8 47.5 C266.2 47.2 266.6 46.9 267 46.5 C267.3 46.2 267.6 45.8 267.9 45.3 C268.1 44.9 268.3 44.4 268.4 43.9 C268.5 43.3 268.6 42.8 268.6 42.2 M266.4 42.2 C266.4 42.9 266.3 43.4 266.1 44 C265.9 44.5 265.7 44.9 265.4 45.3 C265.1 45.6 264.7 45.9 264.2 46.1 C263.8 46.3 263.3 46.4 262.7 46.4 C262.1 46.4 261.6 46.3 261.1 46.1 C260.7 45.9 260.3 45.6 260 45.3 C259.7 44.9 259.4 44.5 259.2 44 C259.1 43.4 259 42.9 259 42.2 C259 41.5 259.1 41 259.2 40.4 C259.4 39.9 259.7 39.5 260 39.1 C260.3 38.8 260.7 38.5 261.1 38.3 C261.6 38.1 262.1 38 262.7 38 C263.3 38 263.8 38.1 264.2 38.3 C264.7 38.5 265.1 38.8 265.4 39.1 C265.7 39.5 265.9 39.9 266.1 40.4 C266.3 41 266.4 41.5 266.4 42.2 " style="fill:#ffffff;fill-opacity:1;fill-rule:nonzero;stroke:none"/></g></g></g><g transform="matrix(0.8000021,0,0,0.8000021,62.054276,41.709136)"><path d="M 0 0 L -15.9 16.2 L -15.9 32.3 L 0 16.2 L 0 0 z" style="fill:#ffffff;fill-opacity:1;fill-rule:nonzero;stroke:none"/></g><g transform="matrix(0.8000021,0,0,0.8000021,74.79575,67.560485)"><path d="M 0 0 L -15.9 -16.2 L -15.9 0 L 0 16.2 L 0 0 z" style="fill:#ffffff;fill-opacity:1;fill-rule:nonzero;stroke:none"/></g><g transform="matrix(0.8000021,0,0,0.8000021,100.27702,67.560485)"><path d="M 0 0 L -15.9 -16.2 L -15.9 0 L 0 16.2 L 0 0 z" style="fill:#ffffff;fill-opacity:1;fill-rule:nonzero;stroke:none"/></g><g transform="matrix(0.8000021,0,0,0.8000021,125.7582,67.560485)"><path d="M 0 0 L -15.9 -16.2 L -15.9 0 L 0 16.2 L 0 0 z" style="fill:#ffffff;fill-opacity:1;fill-rule:nonzero;stroke:none"/></g><g transform="matrix(0.8000021,0,0,0.8000021,74.79575,67.560485)"><path d="M 0 0 L 15.9 -16.2 L 15.9 -32.3 L 0 -16.2 L 0 0 z" style="fill:#ffffff;fill-opacity:1;fill-rule:nonzero;stroke:none"/></g><g transform="matrix(0.8000021,0,0,0.8000021,100.27702,67.560485)"><path d="M 0 0 L 15.9 -16.2 L 15.9 -32.3 L 0 -16.2 L 0 0 z" style="fill:#ffffff;fill-opacity:1;fill-rule:nonzero;stroke:none"/></g><g transform="matrix(0.8000021,0,0,0.8000021,62.054276,15.858267)"><path d="M 0 0 L -15.9 16.2 L -15.9 32.3 L 0 16.2 L 0 0 z" style="fill:#ffffff;fill-opacity:1;fill-rule:nonzero;stroke:none"/></g><g transform="matrix(0.8000021,0,0,0.8000021,113.01769,-0.631136)"><path d="M 0 0 L -15.9 16.2 L -15.9 32.3 L 0 16.2 L 0 0 z" style="fill:#ffffff;fill-opacity:1;fill-rule:nonzero;stroke:none"/></g><g transform="matrix(0.8000021,0,0,0.8000021,74.79575,41.709136)"><path d="M 0 0 L -15.9 -16.2 L -15.9 0 L 0 16.2 L 0 0 z" style="fill:#ffffff;fill-opacity:1;fill-rule:nonzero;stroke:none"/></g><g transform="matrix(0.8000021,0,0,0.8000021,100.27702,41.709136)"><path d="M 0 0 L -15.9 -16.2 L -15.9 0 L 0 16.2 L 0 0 z" style="fill:#ffffff;fill-opacity:1;fill-rule:nonzero;stroke:none"/></g><g transform="matrix(0.8000021,0,0,0.8000021,125.7582,41.709136)"><path d="M 0 0 L -15.9 -16.2 L -15.9 0 L 0 16.2 L 0 0 z" style="fill:#ffffff;fill-opacity:1;fill-rule:nonzero;stroke:none"/></g><g transform="matrix(0.8000021,0,0,0.8000021,74.79575,41.709136)"><path d="M 0 0 L 15.9 -16.2 L 15.9 -32.3 L 0 -16.2 L 0 0 z" style="fill:#ffffff;fill-opacity:1;fill-rule:nonzero;stroke:none"/></g><g transform="matrix(0.8000021,0,0,0.8000021,100.27702,41.709136)"><path d="M 0 0 L 15.9 -16.2 L 15.9 -32.3 L 0 -16.2 L 0 0 z" style="fill:#ffffff;fill-opacity:1;fill-rule:nonzero;stroke:none"/></g><g transform="matrix(0.8000021,0,0,0.8000021,87.536424,74.226423)"><path d="M 0 0 L -4.5 9.7 L 0 19.4 L 4.5 9.7 L 0 0 z" style="fill:#ffffff;fill-opacity:1;fill-rule:nonzero;stroke:none"/></g><g transform="matrix(0.8000021,0,0,0.8000021,62.054276,74.226423)"><path d="M 0 0 L -4.5 9.7 L 0 19.4 L 4.5 9.7 L 0 0 z" style="fill:#ffffff;fill-opacity:1;fill-rule:nonzero;stroke:none"/></g><g transform="matrix(0.8000021,0,0,0.8000021,113.01769,74.226423)"><path d="M 0 0 L -4.5 9.7 L 0 19.4 L 4.5 9.7 L 0 0 z" style="fill:#ffffff;fill-opacity:1;fill-rule:nonzero;stroke:none"/></g></g></svg>