<svg xmlns:svg="http://www.w3.org/2000/svg" xmlns="http://www.w3.org/2000/svg" version="1.0" width="940" height="201"><defs/><g><g transform="matrix(0.9995033,0,0,-0.9995033,328.07078,702.95202)"><g><path d="M103.2 398.9 L5.5 496.6 L5.5 594.2 L103.2 496.6 L103.2 398.9 z" style="fill:none;stroke:#ffffff;stroke-width:1.2506212;stroke-linecap:butt;stroke-linejoin:miter;stroke-miterlimit:10;stroke-dasharray:none;stroke-opacity:1"/></g><g><path d="M200.9 594.2 L103.2 496.5 L103.2 594.2 L200.9 691.9 L200.9 594.2 z" style="fill:none;stroke:#ffffff;stroke-width:1.2506212;stroke-linecap:butt;stroke-linejoin:miter;stroke-miterlimit:10;stroke-dasharray:none;stroke-opacity:1"/></g><g><path d="M396.2 594.2 L298.5 496.5 L298.5 594.2 L396.2 691.9 L396.2 594.2 z" style="fill:none;stroke:#ffffff;stroke-width:1.2506212;stroke-linecap:butt;stroke-linejoin:miter;stroke-miterlimit:10;stroke-dasharray:none;stroke-opacity:1"/></g><g><path d="M591.6 594.2 L493.9 496.5 L493.9 594.2 L591.6 691.9 L591.6 594.2 z" style="fill:none;stroke:#ffffff;stroke-width:1.2506212;stroke-linecap:butt;stroke-linejoin:miter;stroke-miterlimit:10;stroke-dasharray:none;stroke-opacity:1"/></g><g><path d="M200.9 594.2 L298.6 496.5 L298.6 398.9 L200.9 496.5 L200.9 594.2 z" style="fill:none;stroke:#ffffff;stroke-width:1.2506212;stroke-linecap:butt;stroke-linejoin:miter;stroke-miterlimit:10;stroke-dasharray:none;stroke-opacity:1"/></g><g><path d="M396.2 594.2 L493.9 496.5 L493.9 398.9 L396.2 496.5 L396.2 594.2 z" style="fill:none;stroke:#ffffff;stroke-width:1.2506212;stroke-linecap:butt;stroke-linejoin:miter;stroke-miterlimit:10;stroke-dasharray:none;stroke-opacity:1"/></g><g><path d="M103.2 203.5 L5.5 301.2 L5.5 398.8 L103.2 301.2 L103.2 203.5 z" style="fill:none;stroke:#ffffff;stroke-width:1.2506212;stroke-linecap:butt;stroke-linejoin:miter;stroke-miterlimit:10;stroke-dasharray:none;stroke-opacity:1"/></g><g><path d="M493.9 78.9 L396.2 176.6 L396.2 274.2 L493.9 176.6 L493.9 78.9 z" style="fill:none;stroke:#ffffff;stroke-width:1.2506212;stroke-linecap:butt;stroke-linejoin:miter;stroke-miterlimit:10;stroke-dasharray:none;stroke-opacity:1"/></g><g><path d="M200.9 398.9 L103.2 301.2 L103.2 398.9 L200.9 496.6 L200.9 398.9 z" style="fill:none;stroke:#ffffff;stroke-width:1.2506212;stroke-linecap:butt;stroke-linejoin:miter;stroke-miterlimit:10;stroke-dasharray:none;stroke-opacity:1"/></g><g><path d="M396.2 398.9 L298.5 301.2 L298.5 398.9 L396.2 496.6 L396.2 398.9 z" style="fill:none;stroke:#ffffff;stroke-width:1.2506212;stroke-linecap:butt;stroke-linejoin:miter;stroke-miterlimit:10;stroke-dasharray:none;stroke-opacity:1"/></g><g><path d="M591.6 398.9 L493.9 301.2 L493.9 398.9 L591.6 496.6 L591.6 398.9 z" style="fill:none;stroke:#ffffff;stroke-width:1.2506212;stroke-linecap:butt;stroke-linejoin:miter;stroke-miterlimit:10;stroke-dasharray:none;stroke-opacity:1"/></g><g><path d="M200.9 398.9 L298.6 301.2 L298.6 203.6 L200.9 301.2 L200.9 398.9 z" style="fill:none;stroke:#ffffff;stroke-width:1.2506212;stroke-linecap:butt;stroke-linejoin:miter;stroke-miterlimit:10;stroke-dasharray:none;stroke-opacity:1"/></g><g><path d="M396.2 398.9 L493.9 301.2 L493.9 203.6 L396.2 301.2 L396.2 398.9 z" style="fill:none;stroke:#ffffff;stroke-width:1.2506212;stroke-linecap:butt;stroke-linejoin:miter;stroke-miterlimit:10;stroke-dasharray:none;stroke-opacity:1"/></g><g><path d="M298.6 644.6 L270.9 703.3 L298.6 762 L326.3 703.3 L298.6 644.6 z" style="fill:none;stroke:#ffffff;stroke-width:1.2506212;stroke-linecap:butt;stroke-linejoin:miter;stroke-miterlimit:10;stroke-dasharray:none;stroke-opacity:1"/></g><g><path d="M103.2 644.6 L75.5 703.3 L103.2 762 L130.9 703.3 L103.2 644.6 z" style="fill:none;stroke:#ffffff;stroke-width:1.2506212;stroke-linecap:butt;stroke-linejoin:miter;stroke-miterlimit:10;stroke-dasharray:none;stroke-opacity:1"/></g><g><path d="M493.9 644.6 L466.2 703.3 L493.9 762 L521.6 703.3 L493.9 644.6 z" style="fill:none;stroke:#ffffff;stroke-width:1.2506212;stroke-linecap:butt;stroke-linejoin:miter;stroke-miterlimit:10;stroke-dasharray:none;stroke-opacity:1"/></g></g></g></svg>